<?xml version="1.0" encoding="UTF-8" standalone="no"?>
<!DOCTYPE svg PUBLIC "-//W3C//DTD SVG 1.1//EN" "http://www.w3.org/Graphics/SVG/1.1/DTD/svg11.dtd">
<svg xmlns="http://www.w3.org/2000/svg" version="1.1" viewBox="0.00 0.00 512.00 512.00">
<g stroke-width="2.00" fill="none" stroke-linecap="butt">
<path stroke="#4d090f" vector-effect="non-scaling-stroke" d="
  M 149.51 269.32
  Q 139.32 264.51 136.09 262.15
  Q 129.61 257.42 126.48 252.48
  Q 123.31 247.47 120.43 239.70
  C 119.70 237.72 118.41 235.85 117.22 234.11
  Q 116.35 232.84 115.33 233.99
  C 114.18 235.29 113.75 238.55 113.44 240.31
  Q 113.02 242.69 112.00 245.35
  Q 105.47 262.42 104.27 277.90
  Q 103.56 287.20 104.15 298.74
  Q 104.35 302.69 104.12 306.71
  Q 103.85 311.41 105.54 316.21
  Q 110.67 330.82 125.70 337.36
  C 126.94 337.90 128.19 337.69 129.46 338.19
  Q 130.31 338.53 129.43 338.80
  L 127.82 339.29"
/>
<path stroke="#6a0f0f" vector-effect="non-scaling-stroke" d="
  M 127.82 339.29
  C 125.94 339.60 123.99 340.02 122.05 340.09
  Q 110.56 340.55 102.35 341.72
  Q 93.92 342.92 87.32 347.31
  Q 84.50 349.18 81.54 350.38
  C 70.16 354.97 65.17 366.16 59.95 376.79
  C 57.87 381.00 55.19 386.17 52.16 389.35
  C 50.12 391.49 48.55 394.28 46.38 395.74
  Q 42.01 398.69 35.62 399.26
  Q 34.58 399.36 35.60 399.60
  Q 40.86 400.85 45.57 403.41
  Q 55.77 408.93 66.13 414.42
  Q 75.57 419.42 82.18 420.37
  Q 85.80 420.89 89.33 421.49
  C 96.97 422.80 105.07 421.86 112.00 418.57
  C 121.07 414.27 127.22 408.14 134.26 400.93
  C 142.34 392.65 152.83 384.90 163.81 380.69
  C 165.89 379.90 166.92 378.52 168.56 377.20
  A 1.15 1.15 0.0 0 1 170.28 377.53
  Q 170.90 378.63 171.15 379.84
  Q 172.06 384.19 172.82 388.43
  Q 173.80 393.94 178.07 395.93
  Q 179.99 396.83 181.73 397.99
  Q 189.96 403.50 200.45 405.79
  Q 210.06 407.89 219.41 410.23
  Q 221.37 410.72 222.81 412.09
  Q 230.27 419.24 237.63 426.41
  C 244.45 433.05 252.04 439.34 260.55 443.27
  Q 265.21 445.43 273.07 447.34
  Q 279.45 448.88 286.19 450.80
  C 298.17 454.20 310.38 456.92 322.93 456.44
  C 334.20 456.01 346.33 456.42 358.01 455.52
  C 367.28 454.81 378.24 452.56 385.95 447.35
  C 392.03 443.25 415.41 425.08 404.87 416.12
  Q 402.60 414.19 400.00 413.33
  A 0.53 0.53 0.0 0 1 399.69 412.61
  Q 403.61 404.09 406.87 396.04
  C 410.61 386.82 412.71 377.15 409.09 367.53"
/>
<path stroke="#7d7a6c" vector-effect="non-scaling-stroke" d="
  M 409.09 367.53
  Q 425.94 359.23 440.10 346.59
  C 447.01 340.41 453.68 332.01 456.11 323.00
  Q 457.74 316.96 458.97 311.14
  Q 461.27 300.26 460.24 288.75
  Q 459.34 278.64 453.85 266.22"
/>
<path stroke="#7b701a" vector-effect="non-scaling-stroke" d="
  M 453.85 266.22
  C 460.08 241.61 463.83 224.95 466.82 208.17
  C 468.82 196.94 468.96 187.12 467.59 176.14
  Q 465.88 162.37 463.51 145.68
  Q 463.38 144.78 463.03 143.99
  Q 455.52 126.69 447.53 113.48
  C 446.06 111.05 444.23 108.81 442.26 106.77
  Q 430.64 94.71 418.00 83.23
  A 2.04 2.01 -71.6 0 1 417.35 81.91
  Q 416.80 75.46 415.19 69.96
  C 414.01 65.91 410.58 59.57 405.95 59.22
  C 396.25 58.47 386.85 61.98 380.57 68.95
  Q 380.19 69.37 379.67 69.14
  Q 360.43 60.61 339.50 58.08
  Q 331.39 57.09 322.06 56.23
  Q 313.81 55.47 307.85 55.59
  Q 299.69 55.76 292.91 56.88
  Q 286.72 57.90 279.42 59.49
  C 268.65 61.83 259.09 65.26 249.20 70.34
  C 243.40 73.32 237.69 74.80 231.24 74.34
  C 225.51 73.93 220.20 70.42 215.42 67.49
  Q 211.78 65.25 207.09 63.77
  Q 201.77 62.09 197.53 61.29
  Q 187.61 59.41 178.51 60.82
  C 169.47 62.22 157.36 68.96 154.66 78.57
  Q 151.77 88.89 153.33 102.15
  Q 155.44 119.96 160.11 134.02
  Q 160.27 134.49 160.08 134.96
  C 152.41 153.90 146.51 173.18 144.31 193.64
  C 143.03 205.52 143.17 218.98 143.63 230.47
  Q 144.04 240.90 145.71 252.75
  Q 146.92 261.35 149.51 269.32"
/>
<path stroke="#f8ea86" vector-effect="non-scaling-stroke" d="
  M 453.85 266.22
  Q 453.28 265.36 451.65 262.34
  Q 445.29 250.54 433.71 243.02
  Q 427.96 239.29 420.99 238.88"
/>
<path stroke="#958a34" vector-effect="non-scaling-stroke" d="
  M 420.99 238.88
  Q 426.95 229.95 422.81 221.17
  Q 421.76 218.92 420.40 216.75
  C 417.69 212.41 411.06 208.95 406.52 207.86
  C 397.32 205.66 389.41 203.14 381.38 207.85
  C 375.08 211.54 367.59 217.66 364.70 224.57
  C 362.73 229.27 363.17 234.44 363.23 239.42"
/>
<path stroke="#f8ea86" vector-effect="non-scaling-stroke" d="
  M 363.23 239.42
  Q 358.83 236.98 357.22 235.26
  Q 353.96 231.78 350.49 228.54
  Q 338.30 217.12 321.67 212.43"
/>
<path stroke="#fbf09a" vector-effect="non-scaling-stroke" d="
  M 321.67 212.43
  C 349.34 203.41 353.26 166.63 329.98 151.02
  Q 316.51 142.00 300.11 148.26"
/>
<path stroke="#7b701a" vector-effect="non-scaling-stroke" d="
  M 300.11 148.26
  Q 285.89 151.44 282.72 165.37"
/>
<path stroke="#fbf09a" vector-effect="non-scaling-stroke" d="
  M 282.72 165.37
  Q 281.09 168.01 280.19 172.25
  C 276.74 188.63 284.57 204.38 299.77 211.21"
/>
<path stroke="#f8ea86" vector-effect="non-scaling-stroke" d="
  M 299.77 211.21
  Q 299.85 211.70 299.40 211.83
  Q 294.70 213.25 290.40 215.37
  Q 281.93 219.54 270.32 227.95
  Q 253.02 240.48 242.88 260.60
  C 233.29 279.65 224.53 300.40 231.99 321.60
  Q 235.49 331.56 244.11 337.89
  Q 247.95 340.71 251.97 343.71
  Q 252.04 343.76 258.42 348.90
  Q 263.79 353.22 269.61 355.91
  Q 278.18 359.86 293.21 365.69"
/>
<path stroke="#e57f29" vector-effect="non-scaling-stroke" d="
  M 293.21 365.69
  Q 290.17 365.12 287.18 364.38
  Q 274.93 361.32 262.66 358.30
  Q 259.69 357.57 249.26 355.66
  Q 227.47 351.69 209.56 338.56"
/>
<path stroke="#7b701a" vector-effect="non-scaling-stroke" d="
  M 209.56 338.56
  L 204.15 334.68"
/>
<path stroke="#c87929" vector-effect="non-scaling-stroke" d="
  M 204.15 334.68
  Q 187.55 323.49 175.04 311.20
  Q 157.51 293.98 149.51 269.32"
/>
<path stroke="#e7897b" vector-effect="non-scaling-stroke" d="
  M 409.09 367.53
  Q 391.51 375.84 373.00 381.22
  Q 371.66 381.61 370.24 381.68
  Q 352.58 382.58 335.27 378.95
  Q 313.59 374.41 293.21 365.69"
/>
<path stroke="#7d7a6c" vector-effect="non-scaling-stroke" d="
  M 323.47 171.56
  L 322.54 175.72"
/>
<path stroke="#7d7a6c" vector-effect="non-scaling-stroke" d="
  M 318.53 181.58
  L 315.77 184.30"
/>
<path stroke="#7d7a6c" vector-effect="non-scaling-stroke" d="
  M 311.74 186.79
  L 306.78 188.19"
/>
<path stroke="#7d7a6c" vector-effect="non-scaling-stroke" d="
  M 300.23 188.23
  L 296.06 187.26"
/>
<path stroke="#fcfaec" vector-effect="non-scaling-stroke" d="
  M 321.67 212.43
  Q 310.70 215.67 299.77 211.21"
/>
<path stroke="#808080" vector-effect="non-scaling-stroke" d="
  M 282.72 165.37
  Q 281.83 181.37 296.06 187.26"
/>
<path stroke="#fcfaec" vector-effect="non-scaling-stroke" d="
  M 296.06 187.26
  Q 298.52 188.99 300.23 188.23"
/>
<path stroke="#808080" vector-effect="non-scaling-stroke" d="
  M 300.23 188.23
  L 306.78 188.19"
/>
<path stroke="#fcfaec" vector-effect="non-scaling-stroke" d="
  M 306.78 188.19
  Q 309.44 188.57 311.74 186.79"
/>
<path stroke="#808080" vector-effect="non-scaling-stroke" d="
  M 311.74 186.79
  L 315.77 184.30"
/>
<path stroke="#fcfaec" vector-effect="non-scaling-stroke" d="
  M 315.77 184.30
  Q 318.25 183.97 318.53 181.58"
/>
<path stroke="#808080" vector-effect="non-scaling-stroke" d="
  M 318.53 181.58
  Q 321.22 179.12 322.54 175.72"
/>
<path stroke="#fcfaec" vector-effect="non-scaling-stroke" d="
  M 322.54 175.72
  Q 324.06 174.13 323.47 171.56"
/>
<path stroke="#808080" vector-effect="non-scaling-stroke" d="
  M 323.47 171.56
  Q 324.58 164.60 322.08 159.70
  Q 315.73 147.28 300.11 148.26"
/>
<path stroke="#6a0f0f" vector-effect="non-scaling-stroke" d="
  M 209.56 338.56
  Q 207.14 338.25 205.47 336.77"
/>
<path stroke="#979486" vector-effect="non-scaling-stroke" d="
  M 420.99 238.88
  C 414.45 244.82 410.20 248.88 402.64 252.05
  Q 396.43 254.65 390.37 254.52
  Q 386.42 254.43 380.65 251.96
  Q 372.92 248.66 367.48 246.07
  Q 363.31 244.08 363.23 239.42"
/>
<path stroke="#4d090f" vector-effect="non-scaling-stroke" d="
  M 204.15 334.68
  Q 203.91 335.49 205.47 336.77"
/>
<path stroke="#b7181e" vector-effect="non-scaling-stroke" d="
  M 205.47 336.77
  Q 202.09 337.83 198.83 338.71
  Q 196.83 339.25 195.35 340.17
  Q 193.64 341.23 191.84 341.87
  C 189.84 342.59 188.21 343.77 186.40 344.85
  Q 184.50 345.99 183.41 347.98
  Q 181.05 352.30 178.07 355.26
  C 175.37 357.96 174.39 361.43 172.50 364.61
  C 171.26 366.70 170.58 369.07 169.83 371.34
  Q 169.15 373.43 168.28 371.41
  Q 167.93 370.59 167.88 368.75
  Q 167.76 363.49 167.67 358.25
  Q 167.64 356.26 166.31 354.15
  A 1.36 1.32 -7.7 0 0 165.55 353.59
  C 162.17 352.68 157.34 355.21 154.21 356.72
  Q 153.71 356.96 153.64 357.50
  Q 153.13 361.81 148.43 362.06
  C 145.21 362.22 142.72 363.68 139.46 363.62
  Q 128.81 363.40 118.04 366.79
  Q 111.86 368.73 103.37 372.56
  Q 102.47 372.97 102.98 372.11
  C 106.35 366.41 112.34 361.03 117.28 356.66
  Q 118.10 355.94 119.28 355.89
  Q 119.78 355.87 120.13 355.50
  Q 121.49 354.08 123.12 353.50
  C 128.36 351.64 133.76 350.08 138.80 347.33
  Q 145.82 343.49 153.31 343.43
  Q 154.09 343.42 153.84 342.68
  L 153.74 342.38
  Q 153.45 341.54 152.57 341.53
  Q 142.44 341.38 132.25 341.65
  Q 128.67 341.75 127.82 339.29"
/>
<path stroke="#e79526" vector-effect="non-scaling-stroke" d="
  M 177.94 121.40
  L 215.33 90.36
  A 0.32 0.32 0.0 0 0 215.38 89.91
  L 215.06 89.52
  A 35.18 24.56 50.3 0 0 173.69 78.14
  L 173.60 78.22
  A 35.18 24.56 50.3 0 0 177.17 120.97
  L 177.49 121.36
  A 0.32 0.32 0.0 0 0 177.94 121.40"
/>
<path stroke="#7b701a" vector-effect="non-scaling-stroke" d="
  M 394.4797 92.9771
  A 10.44 9.43 -0.4 0 0 383.9742 83.6202
  A 10.44 9.43 -0.4 0 0 373.6003 93.1229
  A 10.44 9.43 -0.4 0 0 384.1058 102.4798
  A 10.44 9.43 -0.4 0 0 394.4797 92.9771"
/>
<path stroke="#7b701a" vector-effect="non-scaling-stroke" d="
  M 288.7841 91.6128
  A 12.33 7.55 -15.8 0 0 274.8643 87.7053
  A 12.33 7.55 -15.8 0 0 265.0559 98.3272
  A 12.33 7.55 -15.8 0 0 278.9757 102.2347
  A 12.33 7.55 -15.8 0 0 288.7841 91.6128"
/>
<path stroke="#7b701a" vector-effect="non-scaling-stroke" d="
  M 358.1698 115.9835
  A 6.66 5.62 -0.4 0 0 351.4708 110.4101
  A 6.66 5.62 -0.4 0 0 344.8502 116.0765
  A 6.66 5.62 -0.4 0 0 351.5492 121.6499
  A 6.66 5.62 -0.4 0 0 358.1698 115.9835"
/>
<path stroke="#7b701a" vector-effect="non-scaling-stroke" d="
  M 215.7301 140.8400
  A 5.70 4.64 90.1 0 0 220.3800 135.1481
  A 5.70 4.64 90.1 0 0 215.7499 129.4400
  A 5.70 4.64 90.1 0 0 211.1000 135.1319
  A 5.70 4.64 90.1 0 0 215.7301 140.8400"
/>
<path stroke="#7b701a" vector-effect="non-scaling-stroke" d="
  M 418.77 156.82
  Q 410.14 158.93 406.55 169.20"
/>
<path stroke="#fbf09a" vector-effect="non-scaling-stroke" d="
  M 406.55 169.20
  Q 399.24 184.79 406.32 199.40
  C 411.49 210.05 422.91 217.73 434.81 214.69
  C 457.44 208.91 462.70 177.72 447.57 161.84
  Q 435.83 149.52 418.82 156.00
  A 0.27 0.26 51.5 0 0 418.77 156.47
  Q 419.17 156.74 418.77 156.82"
/>
<path stroke="#808080" vector-effect="non-scaling-stroke" d="
  M 406.55 169.20
  Q 406.48 171.82 406.48 174.40
  Q 406.47 177.40 407.09 179.59
  C 409.22 187.10 416.67 193.04 424.75 191.08
  C 431.39 189.48 436.10 183.35 436.75 176.48
  Q 437.16 172.10 436.12 168.29
  C 434.03 160.61 427.21 155.49 418.77 156.82"
/>
<path stroke="#7b701a" vector-effect="non-scaling-stroke" d="
  M 182.7106 212.7868
  A 13.32 9.45 71.3 0 0 187.3911 197.1402
  A 13.32 9.45 71.3 0 0 174.1694 187.5532
  A 13.32 9.45 71.3 0 0 169.4889 203.1998
  A 13.32 9.45 71.3 0 0 182.7106 212.7868"
/>
<path stroke="#7b701a" vector-effect="non-scaling-stroke" d="
  M 220.5194 217.2899
  A 5.65 3.79 89.6 0 0 224.2699 211.6135
  A 5.65 3.79 89.6 0 0 220.4406 205.9901
  A 5.65 3.79 89.6 0 0 216.6901 211.6665
  A 5.65 3.79 89.6 0 0 220.5194 217.2899"
/>
<path stroke="#7b701a" vector-effect="non-scaling-stroke" d="
  M 195.59 278.56
  A 7.59 7.59 0.0 0 0 188.00 270.97
  A 7.59 7.59 0.0 0 0 180.41 278.56
  A 7.59 7.59 0.0 0 0 188.00 286.15
  A 7.59 7.59 0.0 0 0 195.59 278.56"
/>
</g>
<path fill="#000000" d="
  M 138.30 253.80
  Q 137.18 247.42 136.78 240.83
  Q 135.47 219.19 136.36 199.84
  Q 137.08 184.04 141.66 166.50
  Q 145.81 150.62 152.26 134.51
  Q 152.54 133.83 152.05 132.82
  Q 151.58 131.84 151.45 131.33
  C 148.97 121.18 146.67 112.00 145.74 101.33
  C 144.71 89.60 144.96 75.85 152.96 66.81
  Q 158.77 60.25 166.14 56.99
  Q 175.86 52.69 187.17 52.83
  Q 200.59 53.00 214.23 58.53
  C 218.11 60.10 221.61 62.55 225.24 64.66
  Q 231.72 68.40 238.89 66.35
  Q 242.39 65.35 245.38 63.85
  Q 251.53 60.78 257.41 58.39
  Q 263.47 55.92 269.70 54.23
  C 288.01 49.27 305.84 46.88 324.63 49.12
  C 332.75 50.09 341.01 50.40 348.98 51.91
  Q 364.02 54.76 377.89 60.31
  A 0.99 0.96 -52.0 0 0 378.85 60.18
  Q 390.58 51.28 405.60 51.44
  Q 407.77 51.46 410.05 52.52
  Q 417.47 55.94 420.73 63.82
  Q 423.74 71.10 424.64 78.83
  Q 424.68 79.24 424.98 79.51
  Q 435.62 89.35 445.73 99.56
  Q 451.44 105.33 454.82 111.13
  Q 461.90 123.30 469.07 139.02
  Q 470.47 142.10 470.98 145.76
  Q 472.49 156.68 474.00 167.06
  Q 474.54 170.82 475.05 175.25
  Q 477.32 195.16 473.34 214.55
  Q 471.70 222.55 470.01 230.24
  Q 467.20 243.08 464.40 254.49
  Q 463.11 259.74 461.74 265.19
  Q 461.62 265.69 461.82 266.17
  Q 468.97 283.33 467.68 301.54
  Q 466.99 311.42 463.75 323.25
  Q 461.37 331.96 457.29 338.00
  Q 450.66 347.81 440.64 356.02
  Q 430.31 364.50 417.90 371.33
  Q 417.76 371.41 417.79 371.57
  C 419.53 379.66 417.45 389.02 414.60 396.60
  Q 412.10 403.27 409.27 409.44
  Q 409.03 409.95 409.45 410.32
  C 419.85 419.74 414.10 431.36 406.12 439.70
  Q 399.19 446.93 391.48 452.57
  Q 384.59 457.62 374.25 460.33
  Q 363.93 463.04 350.51 463.32
  Q 335.28 463.63 318.92 463.81
  C 312.04 463.89 306.00 462.82 299.45 461.68
  Q 295.09 460.92 291.23 459.85
  Q 281.60 457.18 270.42 454.33
  Q 260.80 451.88 254.79 448.73
  C 244.99 443.58 236.33 435.74 228.43 427.81
  Q 222.48 421.86 217.49 417.44
  Q 217.05 417.06 216.49 416.95
  Q 201.78 414.11 191.38 410.91
  Q 184.05 408.65 178.52 404.57
  Q 177.46 403.79 173.66 402.09
  C 169.22 400.11 166.09 393.49 165.23 388.92
  A 0.73 0.73 0.0 0 0 164.19 388.39
  Q 150.66 394.98 140.33 405.41
  Q 135.83 409.95 131.32 414.25
  Q 120.95 424.11 107.69 428.05
  Q 101.62 429.85 94.64 429.50
  Q 85.96 429.06 77.61 426.95
  C 67.12 424.30 56.94 418.03 47.18 412.70
  Q 42.56 410.17 37.72 407.93
  C 34.93 406.63 32.31 407.87 29.88 406.81
  Q 25.61 404.95 24.84 400.93
  Q 23.89 395.97 28.68 393.09
  Q 30.99 391.69 35.48 391.61
  C 37.45 391.58 39.20 390.82 41.09 390.37
  C 41.93 390.18 42.47 389.69 42.69 388.85
  Q 42.84 388.26 43.28 387.85
  Q 48.29 383.16 50.60 378.62
  Q 55.26 369.44 59.67 361.21
  C 63.51 354.05 70.26 346.86 78.11 343.80
  Q 80.82 342.74 83.39 340.97
  C 90.24 336.28 98.85 334.35 106.99 333.64
  A 0.36 0.36 0.0 0 0 107.22 333.04
  Q 99.95 325.01 97.41 313.96
  Q 96.42 309.65 96.78 305.73
  Q 97.09 302.23 96.78 298.31
  Q 94.66 271.46 104.37 245.11
  Q 105.15 243.01 105.70 240.72
  Q 106.34 238.11 106.99 235.51
  C 108.75 228.49 114.00 223.69 121.42 228.04
  Q 122.32 228.57 123.95 230.91
  Q 124.94 232.32 125.80 234.23
  Q 127.63 238.28 129.40 242.37
  Q 131.27 246.70 132.72 248.76
  Q 134.75 251.63 137.56 254.20
  Q 138.52 255.08 138.30 253.80
  Z
  M 149.51 269.32
  Q 139.32 264.51 136.09 262.15
  Q 129.61 257.42 126.48 252.48
  Q 123.31 247.47 120.43 239.70
  C 119.70 237.72 118.41 235.85 117.22 234.11
  Q 116.35 232.84 115.33 233.99
  C 114.18 235.29 113.75 238.55 113.44 240.31
  Q 113.02 242.69 112.00 245.35
  Q 105.47 262.42 104.27 277.90
  Q 103.56 287.20 104.15 298.74
  Q 104.35 302.69 104.12 306.71
  Q 103.85 311.41 105.54 316.21
  Q 110.67 330.82 125.70 337.36
  C 126.94 337.90 128.19 337.69 129.46 338.19
  Q 130.31 338.53 129.43 338.80
  L 127.82 339.29
  C 125.94 339.60 123.99 340.02 122.05 340.09
  Q 110.56 340.55 102.35 341.72
  Q 93.92 342.92 87.32 347.31
  Q 84.50 349.18 81.54 350.38
  C 70.16 354.97 65.17 366.16 59.95 376.79
  C 57.87 381.00 55.19 386.17 52.16 389.35
  C 50.12 391.49 48.55 394.28 46.38 395.74
  Q 42.01 398.69 35.62 399.26
  Q 34.58 399.36 35.60 399.60
  Q 40.86 400.85 45.57 403.41
  Q 55.77 408.93 66.13 414.42
  Q 75.57 419.42 82.18 420.37
  Q 85.80 420.89 89.33 421.49
  C 96.97 422.80 105.07 421.86 112.00 418.57
  C 121.07 414.27 127.22 408.14 134.26 400.93
  C 142.34 392.65 152.83 384.90 163.81 380.69
  C 165.89 379.90 166.92 378.52 168.56 377.20
  A 1.15 1.15 0.0 0 1 170.28 377.53
  Q 170.90 378.63 171.15 379.84
  Q 172.06 384.19 172.82 388.43
  Q 173.80 393.94 178.07 395.93
  Q 179.99 396.83 181.73 397.99
  Q 189.96 403.50 200.45 405.79
  Q 210.06 407.89 219.41 410.23
  Q 221.37 410.72 222.81 412.09
  Q 230.27 419.24 237.63 426.41
  C 244.45 433.05 252.04 439.34 260.55 443.27
  Q 265.21 445.43 273.07 447.34
  Q 279.45 448.88 286.19 450.80
  C 298.17 454.20 310.38 456.92 322.93 456.44
  C 334.20 456.01 346.33 456.42 358.01 455.52
  C 367.28 454.81 378.24 452.56 385.95 447.35
  C 392.03 443.25 415.41 425.08 404.87 416.12
  Q 402.60 414.19 400.00 413.33
  A 0.53 0.53 0.0 0 1 399.69 412.61
  Q 403.61 404.09 406.87 396.04
  C 410.61 386.82 412.71 377.15 409.09 367.53
  Q 425.94 359.23 440.10 346.59
  C 447.01 340.41 453.68 332.01 456.11 323.00
  Q 457.74 316.96 458.97 311.14
  Q 461.27 300.26 460.24 288.75
  Q 459.34 278.64 453.85 266.22
  C 460.08 241.61 463.83 224.95 466.82 208.17
  C 468.82 196.94 468.96 187.12 467.59 176.14
  Q 465.88 162.37 463.51 145.68
  Q 463.38 144.78 463.03 143.99
  Q 455.52 126.69 447.53 113.48
  C 446.06 111.05 444.23 108.81 442.26 106.77
  Q 430.64 94.71 418.00 83.23
  A 2.04 2.01 -71.6 0 1 417.35 81.91
  Q 416.80 75.46 415.19 69.96
  C 414.01 65.91 410.58 59.57 405.95 59.22
  C 396.25 58.47 386.85 61.98 380.57 68.95
  Q 380.19 69.37 379.67 69.14
  Q 360.43 60.61 339.50 58.08
  Q 331.39 57.09 322.06 56.23
  Q 313.81 55.47 307.85 55.59
  Q 299.69 55.76 292.91 56.88
  Q 286.72 57.90 279.42 59.49
  C 268.65 61.83 259.09 65.26 249.20 70.34
  C 243.40 73.32 237.69 74.80 231.24 74.34
  C 225.51 73.93 220.20 70.42 215.42 67.49
  Q 211.78 65.25 207.09 63.77
  Q 201.77 62.09 197.53 61.29
  Q 187.61 59.41 178.51 60.82
  C 169.47 62.22 157.36 68.96 154.66 78.57
  Q 151.77 88.89 153.33 102.15
  Q 155.44 119.96 160.11 134.02
  Q 160.27 134.49 160.08 134.96
  C 152.41 153.90 146.51 173.18 144.31 193.64
  C 143.03 205.52 143.17 218.98 143.63 230.47
  Q 144.04 240.90 145.71 252.75
  Q 146.92 261.35 149.51 269.32
  Z"
/>
<path fill="#f6e034" d="
  M 453.85 266.22
  Q 453.28 265.36 451.65 262.34
  Q 445.29 250.54 433.71 243.02
  Q 427.96 239.29 420.99 238.88
  Q 426.95 229.95 422.81 221.17
  Q 421.76 218.92 420.40 216.75
  C 417.69 212.41 411.06 208.95 406.52 207.86
  C 397.32 205.66 389.41 203.14 381.38 207.85
  C 375.08 211.54 367.59 217.66 364.70 224.57
  C 362.73 229.27 363.17 234.44 363.23 239.42
  Q 358.83 236.98 357.22 235.26
  Q 353.96 231.78 350.49 228.54
  Q 338.30 217.12 321.67 212.43
  C 349.34 203.41 353.26 166.63 329.98 151.02
  Q 316.51 142.00 300.11 148.26
  Q 285.89 151.44 282.72 165.37
  Q 281.09 168.01 280.19 172.25
  C 276.74 188.63 284.57 204.38 299.77 211.21
  Q 299.85 211.70 299.40 211.83
  Q 294.70 213.25 290.40 215.37
  Q 281.93 219.54 270.32 227.95
  Q 253.02 240.48 242.88 260.60
  C 233.29 279.65 224.53 300.40 231.99 321.60
  Q 235.49 331.56 244.11 337.89
  Q 247.95 340.71 251.97 343.71
  Q 252.04 343.76 258.42 348.90
  Q 263.79 353.22 269.61 355.91
  Q 278.18 359.86 293.21 365.69
  Q 290.17 365.12 287.18 364.38
  Q 274.93 361.32 262.66 358.30
  Q 259.69 357.57 249.26 355.66
  Q 227.47 351.69 209.56 338.56
  L 204.15 334.68
  Q 187.55 323.49 175.04 311.20
  Q 157.51 293.98 149.51 269.32
  Q 146.92 261.35 145.71 252.75
  Q 144.04 240.90 143.63 230.47
  C 143.17 218.98 143.03 205.52 144.31 193.64
  C 146.51 173.18 152.41 153.90 160.08 134.96
  Q 160.27 134.49 160.11 134.02
  Q 155.44 119.96 153.33 102.15
  Q 151.77 88.89 154.66 78.57
  C 157.36 68.96 169.47 62.22 178.51 60.82
  Q 187.61 59.41 197.53 61.29
  Q 201.77 62.09 207.09 63.77
  Q 211.78 65.25 215.42 67.49
  C 220.20 70.42 225.51 73.93 231.24 74.34
  C 237.69 74.80 243.40 73.32 249.20 70.34
  C 259.09 65.26 268.65 61.83 279.42 59.49
  Q 286.72 57.90 292.91 56.88
  Q 299.69 55.76 307.85 55.59
  Q 313.81 55.47 322.06 56.23
  Q 331.39 57.09 339.50 58.08
  Q 360.43 60.61 379.67 69.14
  Q 380.19 69.37 380.57 68.95
  C 386.85 61.98 396.25 58.47 405.95 59.22
  C 410.58 59.57 414.01 65.91 415.19 69.96
  Q 416.80 75.46 417.35 81.91
  A 2.04 2.01 -71.6 0 0 418.00 83.23
  Q 430.64 94.71 442.26 106.77
  C 444.23 108.81 446.06 111.05 447.53 113.48
  Q 455.52 126.69 463.03 143.99
  Q 463.38 144.78 463.51 145.68
  Q 465.88 162.37 467.59 176.14
  C 468.96 187.12 468.82 196.94 466.82 208.17
  C 463.83 224.95 460.08 241.61 453.85 266.22
  Z
  M 177.94 121.40
  L 215.33 90.36
  A 0.32 0.32 0.0 0 0 215.38 89.91
  L 215.06 89.52
  A 35.18 24.56 50.3 0 0 173.69 78.14
  L 173.60 78.22
  A 35.18 24.56 50.3 0 0 177.17 120.97
  L 177.49 121.36
  A 0.32 0.32 0.0 0 0 177.94 121.40
  Z
  M 394.4797 92.9771
  A 10.44 9.43 -0.4 0 0 383.9742 83.6202
  A 10.44 9.43 -0.4 0 0 373.6003 93.1229
  A 10.44 9.43 -0.4 0 0 384.1058 102.4798
  A 10.44 9.43 -0.4 0 0 394.4797 92.9771
  Z
  M 288.7841 91.6128
  A 12.33 7.55 -15.8 0 0 274.8643 87.7053
  A 12.33 7.55 -15.8 0 0 265.0559 98.3272
  A 12.33 7.55 -15.8 0 0 278.9757 102.2347
  A 12.33 7.55 -15.8 0 0 288.7841 91.6128
  Z
  M 358.1698 115.9835
  A 6.66 5.62 -0.4 0 0 351.4708 110.4101
  A 6.66 5.62 -0.4 0 0 344.8502 116.0765
  A 6.66 5.62 -0.4 0 0 351.5492 121.6499
  A 6.66 5.62 -0.4 0 0 358.1698 115.9835
  Z
  M 215.7301 140.8400
  A 5.70 4.64 90.1 0 0 220.3800 135.1481
  A 5.70 4.64 90.1 0 0 215.7499 129.4400
  A 5.70 4.64 90.1 0 0 211.1000 135.1319
  A 5.70 4.64 90.1 0 0 215.7301 140.8400
  Z
  M 418.77 156.82
  Q 410.14 158.93 406.55 169.20
  Q 399.24 184.79 406.32 199.40
  C 411.49 210.05 422.91 217.73 434.81 214.69
  C 457.44 208.91 462.70 177.72 447.57 161.84
  Q 435.83 149.52 418.82 156.00
  A 0.27 0.26 51.5 0 0 418.77 156.47
  Q 419.17 156.74 418.77 156.82
  Z
  M 182.7106 212.7868
  A 13.32 9.45 71.3 0 0 187.3911 197.1402
  A 13.32 9.45 71.3 0 0 174.1694 187.5532
  A 13.32 9.45 71.3 0 0 169.4889 203.1998
  A 13.32 9.45 71.3 0 0 182.7106 212.7868
  Z
  M 220.5194 217.2899
  A 5.65 3.79 89.6 0 0 224.2699 211.6135
  A 5.65 3.79 89.6 0 0 220.4406 205.9901
  A 5.65 3.79 89.6 0 0 216.6901 211.6665
  A 5.65 3.79 89.6 0 0 220.5194 217.2899
  Z
  M 195.59 278.56
  A 7.59 7.59 0.0 0 0 188.00 270.97
  A 7.59 7.59 0.0 0 0 180.41 278.56
  A 7.59 7.59 0.0 0 0 188.00 286.15
  A 7.59 7.59 0.0 0 0 195.59 278.56
  Z"
/>
<path fill="#d74917" d="
  M 177.94 121.40
  A 0.32 0.32 0.0 0 1 177.49 121.36
  L 177.17 120.97
  A 35.18 24.56 50.3 0 1 173.60 78.22
  L 173.69 78.14
  A 35.18 24.56 50.3 0 1 215.06 89.52
  L 215.38 89.91
  A 0.32 0.32 0.0 0 1 215.33 90.36
  L 177.94 121.40
  Z"
/>
<ellipse fill="#000000" cx="0.00" cy="0.00" transform="translate(384.04,93.05) rotate(-0.4)" rx="10.44" ry="9.43"/>
<ellipse fill="#000000" cx="0.00" cy="0.00" transform="translate(276.92,94.97) rotate(-15.8)" rx="12.33" ry="7.55"/>
<ellipse fill="#000000" cx="0.00" cy="0.00" transform="translate(351.51,116.03) rotate(-0.4)" rx="6.66" ry="5.62"/>
<ellipse fill="#000000" cx="0.00" cy="0.00" transform="translate(215.74,135.14) rotate(90.1)" rx="5.70" ry="4.64"/>
<path fill="#ffffff" d="
  M 321.67 212.43
  Q 310.70 215.67 299.77 211.21
  C 284.57 204.38 276.74 188.63 280.19 172.25
  Q 281.09 168.01 282.72 165.37
  Q 281.83 181.37 296.06 187.26
  Q 298.52 188.99 300.23 188.23
  L 306.78 188.19
  Q 309.44 188.57 311.74 186.79
  L 315.77 184.30
  Q 318.25 183.97 318.53 181.58
  Q 321.22 179.12 322.54 175.72
  Q 324.06 174.13 323.47 171.56
  Q 324.58 164.60 322.08 159.70
  Q 315.73 147.28 300.11 148.26
  Q 316.51 142.00 329.98 151.02
  C 353.26 166.63 349.34 203.41 321.67 212.43
  Z"
/>
<path fill="#000000" d="
  M 300.11 148.26
  Q 315.73 147.28 322.08 159.70
  Q 324.58 164.60 323.47 171.56
  L 322.54 175.72
  Q 321.22 179.12 318.53 181.58
  L 315.77 184.30
  L 311.74 186.79
  L 306.78 188.19
  L 300.23 188.23
  L 296.06 187.26
  Q 281.83 181.37 282.72 165.37
  Q 285.89 151.44 300.11 148.26
  Z"
/>
<path fill="#ffffff" d="
  M 406.55 169.20
  Q 406.48 171.82 406.48 174.40
  Q 406.47 177.40 407.09 179.59
  C 409.22 187.10 416.67 193.04 424.75 191.08
  C 431.39 189.48 436.10 183.35 436.75 176.48
  Q 437.16 172.10 436.12 168.29
  C 434.03 160.61 427.21 155.49 418.77 156.82
  Q 419.17 156.74 418.77 156.47
  A 0.27 0.26 51.5 0 1 418.82 156.00
  Q 435.83 149.52 447.57 161.84
  C 462.70 177.72 457.44 208.91 434.81 214.69
  C 422.91 217.73 411.49 210.05 406.32 199.40
  Q 399.24 184.79 406.55 169.20
  Z"
/>
<path fill="#000000" d="
  M 418.77 156.82
  C 427.21 155.49 434.03 160.61 436.12 168.29
  Q 437.16 172.10 436.75 176.48
  C 436.10 183.35 431.39 189.48 424.75 191.08
  C 416.67 193.04 409.22 187.10 407.09 179.59
  Q 406.47 177.40 406.48 174.40
  Q 406.48 171.82 406.55 169.20
  Q 410.14 158.93 418.77 156.82
  Z"
/>
<path fill="#f9f4d8" d="
  M 323.47 171.56
  Q 324.06 174.13 322.54 175.72
  L 323.47 171.56
  Z"
/>
<path fill="#f9f4d8" d="
  M 318.53 181.58
  Q 318.25 183.97 315.77 184.30
  L 318.53 181.58
  Z"
/>
<path fill="#f9f4d8" d="
  M 311.74 186.79
  Q 309.44 188.57 306.78 188.19
  L 311.74 186.79
  Z"
/>
<ellipse fill="#000000" cx="0.00" cy="0.00" transform="translate(178.44,200.17) rotate(71.3)" rx="13.32" ry="9.45"/>
<path fill="#f9f4d8" d="
  M 296.06 187.26
  L 300.23 188.23
  Q 298.52 188.99 296.06 187.26
  Z"
/>
<path fill="#343434" d="
  M 420.99 238.88
  C 414.45 244.82 410.20 248.88 402.64 252.05
  Q 396.43 254.65 390.37 254.52
  Q 386.42 254.43 380.65 251.96
  Q 372.92 248.66 367.48 246.07
  Q 363.31 244.08 363.23 239.42
  C 363.17 234.44 362.73 229.27 364.70 224.57
  C 367.59 217.66 375.08 211.54 381.38 207.85
  C 389.41 203.14 397.32 205.66 406.52 207.86
  C 411.06 208.95 417.69 212.41 420.40 216.75
  Q 421.76 218.92 422.81 221.17
  Q 426.95 229.95 420.99 238.88
  Z"
/>
<ellipse fill="#000000" cx="0.00" cy="0.00" transform="translate(220.48,211.64) rotate(89.6)" rx="5.65" ry="3.79"/>
<path fill="#f9f4d8" d="
  M 299.77 211.21
  Q 310.70 215.67 321.67 212.43
  Q 338.30 217.12 350.49 228.54
  Q 353.96 231.78 357.22 235.26
  Q 358.83 236.98 363.23 239.42
  Q 363.31 244.08 367.48 246.07
  Q 372.92 248.66 380.65 251.96
  Q 386.42 254.43 390.37 254.52
  Q 396.43 254.65 402.64 252.05
  C 410.20 248.88 414.45 244.82 420.99 238.88
  Q 427.96 239.29 433.71 243.02
  Q 445.29 250.54 451.65 262.34
  Q 453.28 265.36 453.85 266.22
  Q 459.34 278.64 460.24 288.75
  Q 461.27 300.26 458.97 311.14
  Q 457.74 316.96 456.11 323.00
  C 453.68 332.01 447.01 340.41 440.10 346.59
  Q 425.94 359.23 409.09 367.53
  Q 391.51 375.84 373.00 381.22
  Q 371.66 381.61 370.24 381.68
  Q 352.58 382.58 335.27 378.95
  Q 313.59 374.41 293.21 365.69
  Q 278.18 359.86 269.61 355.91
  Q 263.79 353.22 258.42 348.90
  Q 252.04 343.76 251.97 343.71
  Q 247.95 340.71 244.11 337.89
  Q 235.49 331.56 231.99 321.60
  C 224.53 300.40 233.29 279.65 242.88 260.60
  Q 253.02 240.48 270.32 227.95
  Q 281.93 219.54 290.40 215.37
  Q 294.70 213.25 299.40 211.83
  Q 299.85 211.70 299.77 211.21
  Z"
/>
<path fill="#9a111d" d="
  M 149.51 269.32
  Q 157.51 293.98 175.04 311.20
  Q 187.55 323.49 204.15 334.68
  Q 203.91 335.49 205.47 336.77
  Q 202.09 337.83 198.83 338.71
  Q 196.83 339.25 195.35 340.17
  Q 193.64 341.23 191.84 341.87
  C 189.84 342.59 188.21 343.77 186.40 344.85
  Q 184.50 345.99 183.41 347.98
  Q 181.05 352.30 178.07 355.26
  C 175.37 357.96 174.39 361.43 172.50 364.61
  C 171.26 366.70 170.58 369.07 169.83 371.34
  Q 169.15 373.43 168.28 371.41
  Q 167.93 370.59 167.88 368.75
  Q 167.76 363.49 167.67 358.25
  Q 167.64 356.26 166.31 354.15
  A 1.36 1.32 -7.7 0 0 165.55 353.59
  C 162.17 352.68 157.34 355.21 154.21 356.72
  Q 153.71 356.96 153.64 357.50
  Q 153.13 361.81 148.43 362.06
  C 145.21 362.22 142.72 363.68 139.46 363.62
  Q 128.81 363.40 118.04 366.79
  Q 111.86 368.73 103.37 372.56
  Q 102.47 372.97 102.98 372.11
  C 106.35 366.41 112.34 361.03 117.28 356.66
  Q 118.10 355.94 119.28 355.89
  Q 119.78 355.87 120.13 355.50
  Q 121.49 354.08 123.12 353.50
  C 128.36 351.64 133.76 350.08 138.80 347.33
  Q 145.82 343.49 153.31 343.43
  Q 154.09 343.42 153.84 342.68
  L 153.74 342.38
  Q 153.45 341.54 152.57 341.53
  Q 142.44 341.38 132.25 341.65
  Q 128.67 341.75 127.82 339.29
  L 129.43 338.80
  Q 130.31 338.53 129.46 338.19
  C 128.19 337.69 126.94 337.90 125.70 337.36
  Q 110.67 330.82 105.54 316.21
  Q 103.85 311.41 104.12 306.71
  Q 104.35 302.69 104.15 298.74
  Q 103.56 287.20 104.27 277.90
  Q 105.47 262.42 112.00 245.35
  Q 113.02 242.69 113.44 240.31
  C 113.75 238.55 114.18 235.29 115.33 233.99
  Q 116.35 232.84 117.22 234.11
  C 118.41 235.85 119.70 237.72 120.43 239.70
  Q 123.31 247.47 126.48 252.48
  Q 129.61 257.42 136.09 262.15
  Q 139.32 264.51 149.51 269.32
  Z"
/>
<circle fill="#000000" cx="188.00" cy="278.56" r="7.59"/>
<path fill="#000000" d="
  M 204.15 334.68
  L 209.56 338.56
  Q 207.14 338.25 205.47 336.77
  Q 203.91 335.49 204.15 334.68
  Z"
/>
<path fill="#d41e1e" d="
  M 205.47 336.77
  Q 207.14 338.25 209.56 338.56
  Q 227.47 351.69 249.26 355.66
  Q 259.69 357.57 262.66 358.30
  Q 274.93 361.32 287.18 364.38
  Q 290.17 365.12 293.21 365.69
  Q 313.59 374.41 335.27 378.95
  Q 352.58 382.58 370.24 381.68
  Q 371.66 381.61 373.00 381.22
  Q 391.51 375.84 409.09 367.53
  C 412.71 377.15 410.61 386.82 406.87 396.04
  Q 403.61 404.09 399.69 412.61
  A 0.53 0.53 0.0 0 0 400.00 413.33
  Q 402.60 414.19 404.87 416.12
  C 415.41 425.08 392.03 443.25 385.95 447.35
  C 378.24 452.56 367.28 454.81 358.01 455.52
  C 346.33 456.42 334.20 456.01 322.93 456.44
  C 310.38 456.92 298.17 454.20 286.19 450.80
  Q 279.45 448.88 273.07 447.34
  Q 265.21 445.43 260.55 443.27
  C 252.04 439.34 244.45 433.05 237.63 426.41
  Q 230.27 419.24 222.81 412.09
  Q 221.37 410.72 219.41 410.23
  Q 210.06 407.89 200.45 405.79
  Q 189.96 403.50 181.73 397.99
  Q 179.99 396.83 178.07 395.93
  Q 173.80 393.94 172.82 388.43
  Q 172.06 384.19 171.15 379.84
  Q 170.90 378.63 170.28 377.53
  A 1.15 1.15 0.0 0 0 168.56 377.20
  C 166.92 378.52 165.89 379.90 163.81 380.69
  C 152.83 384.90 142.34 392.65 134.26 400.93
  C 127.22 408.14 121.07 414.27 112.00 418.57
  C 105.07 421.86 96.97 422.80 89.33 421.49
  Q 85.80 420.89 82.18 420.37
  Q 75.57 419.42 66.13 414.42
  Q 55.77 408.93 45.57 403.41
  Q 40.86 400.85 35.60 399.60
  Q 34.58 399.36 35.62 399.26
  Q 42.01 398.69 46.38 395.74
  C 48.55 394.28 50.12 391.49 52.16 389.35
  C 55.19 386.17 57.87 381.00 59.95 376.79
  C 65.17 366.16 70.16 354.97 81.54 350.38
  Q 84.50 349.18 87.32 347.31
  Q 93.92 342.92 102.35 341.72
  Q 110.56 340.55 122.05 340.09
  C 123.99 340.02 125.94 339.60 127.82 339.29
  Q 128.67 341.75 132.25 341.65
  Q 142.44 341.38 152.57 341.53
  Q 153.45 341.54 153.74 342.38
  L 153.84 342.68
  Q 154.09 343.42 153.31 343.43
  Q 145.82 343.49 138.80 347.33
  C 133.76 350.08 128.36 351.64 123.12 353.50
  Q 121.49 354.08 120.13 355.50
  Q 119.78 355.87 119.28 355.89
  Q 118.10 355.94 117.28 356.66
  C 112.34 361.03 106.35 366.41 102.98 372.11
  Q 102.47 372.97 103.37 372.56
  Q 111.86 368.73 118.04 366.79
  Q 128.81 363.40 139.46 363.62
  C 142.72 363.68 145.21 362.22 148.43 362.06
  Q 153.13 361.81 153.64 357.50
  Q 153.71 356.96 154.21 356.72
  C 157.34 355.21 162.17 352.68 165.55 353.59
  A 1.36 1.32 -7.7 0 1 166.31 354.15
  Q 167.64 356.26 167.67 358.25
  Q 167.76 363.49 167.88 368.75
  Q 167.93 370.59 168.28 371.41
  Q 169.15 373.43 169.83 371.34
  C 170.58 369.07 171.26 366.70 172.50 364.61
  C 174.39 361.43 175.37 357.96 178.07 355.26
  Q 181.05 352.30 183.41 347.98
  Q 184.50 345.99 186.40 344.85
  C 188.21 343.77 189.84 342.59 191.84 341.87
  Q 193.64 341.23 195.35 340.17
  Q 196.83 339.25 198.83 338.71
  Q 202.09 337.83 205.47 336.77
  Z"
/>
</svg>
